<svg xmlns="http://www.w3.org/2000/svg" style="display: none;">
  <symbol id="eye" viewBox="0 0 24 24" fill="none" stroke="currentColor" stroke-width="2.5" stroke-linecap="round" stroke-linejoin="round">
    <path d="M2 12s3-7 10-7 10 7 10 7-3 7-10 7-10-7-10-7Z"></path>
    <circle cx="12" cy="12" r="3"></circle>
  </symbol>
  <symbol id="eye-off" viewBox="0 0 24 24" fill="none" stroke="currentColor" stroke-width="2.5" stroke-linecap="round" stroke-linejoin="round">
    <path d="M9.88 9.88a3 3 0 1 0 4.24 4.24"></path>
    <path d="M10.73 5.08A10.43 10.43 0 0 1 12 5c7 0 10 7 10 7a13.16 13.16 0 0 1-1.67 2.68"></path>
    <path d="M6.61 6.61A13.52 13.52 0 0 0 2 12s3 7 10 7a9.74 9.74 0 0 0 5.39-1.61"></path>
    <line x1="2" y1="2" x2="22" y2="22"></line>
  </symbol>
  <symbol id="refresh" viewBox="0 0 24 24" fill="none" stroke="currentColor" stroke-width="2.5" stroke-linecap="round" stroke-linejoin="round">
    <path d="M3 12a9 9 0 0 1 9-9 9.75 9.75 0 0 1 6.74 2.74L21 8"></path>
    <path d="M21 3v5h-5"></path>
    <path d="M21 12a9 9 0 0 1-9 9 9.75 9.75 0 0 1-6.74-2.74L3 16"></path>
    <path d="M8 16H3v5"></path>
  </symbol>
  <symbol id="chevron-down" viewBox="0 0 24 24" fill="none" stroke="currentColor" stroke-width="2.5" stroke-linecap="round" stroke-linejoin="round">
    <polyline points="6 11 12 17 18 11"></polyline>
  </symbol>
  <symbol id="chevron-up" viewBox="0 0 24 24" fill="none" stroke="currentColor" stroke-width="2.5" stroke-linecap="round" stroke-linejoin="round">
    <polyline points="6 13 12 7 18 13"></polyline>
  </symbol>
  <symbol id="chevron-right" viewBox="0 0 24 24" fill="none" stroke="currentColor" stroke-width="2.5" stroke-linecap="round" stroke-linejoin="round">
    <polyline points="11 18, 17 12, 11 6"></polyline>
  </symbol>
  <symbol id="copy" viewBox="0 0 24 24" fill="none" stroke="currentColor" stroke-width="2.5" stroke-linecap="round" stroke-linejoin="round">
    <rect x="9" y="9" width="13" height="13" rx="2" ry="2"></rect>
    <path d="M5 15H4a2 2 0 0 1-2-2V4a2 2 0 0 1 2-2h9a2 2 0 0 1 2 2v1"></path>
  </symbol>
  <symbol id="spin" viewBox="0 0 24 24" fill="none" stroke="currentColor" stroke-width="2.5" stroke-linecap="round" stroke-linejoin="round">
    <path d="M21 12a9 9 0 1 1-9-9c2.52 0 4.93 1 6.74 2.74L21 8"></path>
    <path d="M21 3v5h-5"></path>
  </symbol>
  <symbol id="wallet" viewBox="0 0 24 24" fill="none" stroke="currentColor" stroke-width="2" stroke-linecap="round" stroke-linejoin="round">
    <path stroke="none" d="M0 0h24v24H0z" fill="none" />
    <path d="M9 6l11 0" />
    <path d="M9 12l11 0" />
    <path d="M9 18l11 0" />
    <path d="M5 6l0 .01" />
    <path d="M5 12l0 .01" />
    <path d="M5 18l0 .01" />
  </symbol>
  <symbol id="box" viewBox="0 0 24 24" fill="none" stroke="currentColor" stroke-width="2" stroke-linecap="round" stroke-linejoin="round">
    <path d="m7.5 4.27 9 5.15"></path>
    <path d="M21 8a2 2 0 0 0-1-1.73l-7-4a2 2 0 0 0-2 0l-7 4A2 2 0 0 0 3 8v8a2 2 0 0 0 1 1.73l7 4a2 2 0 0 0 2 0l7-4A2 2 0 0 0 21 16Z"></path>
    <path d="m3.3 7 8.7 5 8.7-5"></path>
    <path d="M12 22V12"></path>
  </symbol>
  <symbol id="slots" viewBox="0 0 24 24" fill="none" stroke="currentColor" stroke-width="2" stroke-linecap="round" stroke-linejoin="round">
    <path stroke="none" d="M0 0h24v24H0z" fill="none" />
    <path d="M4 17v-10l7 10v-10" />
    <path d="M15 17h5" />
    <path d="M15 10a2.5 3 0 1 0 5 0a2.5 3 0 1 0 -5 0" />
  </symbol>
  <symbol id="bolt" viewBox="0 0 24 24" fill="none" stroke="currentColor" stroke-width="2" stroke-linecap="round" stroke-linejoin="round">
    <path stroke="none" d="M0 0h24v24H0z" fill="none" />
    <path d="M13 3l0 7l6 0l-8 11l0 -7l-6 0l8 -11" />
  </symbol>
</svg>
